<svg width="16" height="16" viewBox="0 0 16 16" fill="none" xmlns="http://www.w3.org/2000/svg">
<path fill-rule="evenodd" clip-rule="evenodd" d="M0.666504 8.00033C0.666504 12.0504 3.94975 15.3337 7.99984 15.3337C12.0499 15.3337 15.3332 12.0504 15.3332 8.00033C15.3332 3.95024 12.0499 0.666992 7.99984 0.666992C3.94975 0.666992 0.666504 3.95024 0.666504 8.00033ZM13.9998 8.00033C13.9998 11.314 11.3135 14.0003 7.99984 14.0003C4.68613 14.0003 1.99984 11.314 1.99984 8.00033C1.99984 4.68662 4.68613 2.00033 7.99984 2.00033C11.3135 2.00033 13.9998 4.68662 13.9998 8.00033ZM8.00006 11.9993C8.36837 11.9993 8.66694 11.7008 8.66694 11.3327C8.66694 10.9645 8.36837 10.666 8.00006 10.666C7.63175 10.666 7.33317 10.9645 7.33317 11.3327C7.33317 11.7008 7.63175 11.9993 8.00006 11.9993ZM8.66859 3.99932H7.33482V9.33266H8.66859V3.99932Z" fill="#27AE60"/>
</svg>
