<?xml version="1.0" standalone="no"?>
<!DOCTYPE svg PUBLIC "-//W3C//DTD SVG 1.1//EN" "http://www.w3.org/Graphics/SVG/1.1/DTD/svg11.dtd" >
<svg xmlns="http://www.w3.org/2000/svg">
<metadata>Generated by IcoMoon</metadata>
<defs>
<font id="icomoon" horiz-adv-x="1024">
<font-face units-per-em="1024" ascent="960" descent="-64" />
<missing-glyph horiz-adv-x="1024" />
<glyph unicode="&#x20;" horiz-adv-x="512" d="" />
<glyph unicode="&#xe900;" glyph-name="arrow-bottom" d="M447.997 282.509v549.491h128v-549.491l210.742 210.746 90.515-90.51-365.258-365.254-365.254 365.254 90.509 90.51 210.745-210.746z" />
<glyph unicode="&#xe901;" glyph-name="arrow-top" d="M576.001 613.481v-549.487h-128v549.487l-210.745-210.746-90.509 90.51 365.254 365.254 365.254-365.254-90.509-90.51-210.745 210.746z" />
<glyph unicode="&#xe902;" glyph-name="chevron-bottom" d="M850.746 685.25l90.509-90.509-429.254-429.256-429.254 429.256 90.509 90.509 338.745-338.745 338.745 338.745z" />
<glyph unicode="&#xe903;" glyph-name="chevron-left" d="M685.254 237.248l-90.508-90.509-301.254 301.256 301.254 301.255 90.508-90.509-210.743-210.746 210.743-210.747z" />
<glyph unicode="&#xe904;" glyph-name="chevron-right" d="M485.491 447.995l-210.745 210.746 90.509 90.509 301.253-301.255-301.253-301.256-90.509 90.509 210.745 210.747z" />
<glyph unicode="&#xe905;" glyph-name="chevrons-bottom" d="M813.254 722.74l-90.509 90.509-210.745-210.745-210.745 210.745-90.509-90.509 301.254-301.255 301.254 301.255zM722.746 493.25l-210.745-210.748-210.745 210.748-90.509-90.509 301.254-301.256 301.254 301.256-90.509 90.509z" />
<glyph unicode="&#xe906;" glyph-name="chevrons-left" d="M557.257 237.248l-210.746 210.747 210.746 210.746-90.51 90.509-301.254-301.255 301.254-301.256 90.51 90.509zM877.254 237.248l-210.746 210.747 210.746 210.746-90.509 90.509-301.253-301.255 301.253-301.256 90.509 90.509z" />
<glyph unicode="&#xe907;" glyph-name="chevrons-right" d="M146.746 658.74l210.745-210.746-210.745-210.747 90.509-90.509 301.255 301.256-301.255 301.255-90.509-90.509zM466.746 658.74l210.745-210.746-210.745-210.747 90.509-90.509 301.253 301.256-301.253 301.255-90.509-90.509z" />
<glyph unicode="&#xe908;" glyph-name="chevron-top1" d="M512.001 549.481l-338.745-338.748-90.509 90.515 429.254 429.252 429.254-429.252-90.509-90.515-338.745 338.748z" />
<glyph unicode="&#xe909;" glyph-name="circle-chevron-bottom1" d="M512-64c-282.77 0-512 229.229-512 512s229.23 512 512 512c282.771 0 512-229.23 512-512s-229.229-512-512-512zM512 64c212.077 0 384 171.923 384 384s-171.923 384-384 384c-212.077 0-384-171.923-384-384s171.923-384 384-384zM749.254 466.745l-90.509 90.51-146.746-146.746-146.745 146.746-90.51-90.51 237.255-237.254 237.254 237.254z" />
<glyph unicode="&#xe90a;" glyph-name="circle-chevrons-top" d="M210.746 493.245l90.509-90.51 210.745 210.746 210.745-210.746 90.509 90.51-301.254 301.254-301.254-301.254zM210.746 173.248l90.509-90.515 210.745 210.746 210.745-210.746 90.509 90.515-301.254 301.252-301.254-301.252z" />
<glyph unicode="&#xe90b;" glyph-name="external-link1" d="M960 64v256h-128v-256h-704v704h256v128h-256c-70.692 0-128-57.308-128-128v-704c0-70.694 57.308-128 128-128h704c70.694 0 128 57.306 128 128zM429.072 274.746l402.742 402.745v-229.491h128v448h-447.997v-128h229.488l-402.743-402.745 90.509-90.509z" />
<glyph unicode="&#xe90c;" glyph-name="options1" d="M640 832c-83.598 0-154.717-53.428-181.075-128h-458.925v-128h458.925c26.357-74.572 97.476-128 181.075-128 106.042 0 192 85.962 192 192s-85.958 192-192 192zM320 448c-83.598 0-154.717-53.428-181.075-128h-138.925v-128h138.925c26.357-74.573 97.476-128 181.075-128 106.038 0 192 85.958 192 192 0 106.038-85.962 192-192 192zM576 320h448v-128h-448v128zM384 256c0-35.347-28.654-64-64-64s-64 28.653-64 64c0 35.347 28.654 64 64 64s64-28.653 64-64zM896 704h128v-128h-128v128zM704 640c0-35.346-28.653-64-64-64s-64 28.654-64 64c0 35.346 28.653 64 64 64s64-28.654 64-64z" />
<glyph unicode="&#xe90d;" glyph-name="search" d="M615.521 253.971c-56.707-39.085-125.441-61.971-199.521-61.971-194.404 0-352 157.596-352 352s157.596 352 352 352c194.404 0 352-157.596 352-352 0-74.080-22.886-142.815-61.971-199.521l235.226-235.224-90.509-90.509-235.224 235.226zM416 320c123.712 0 224 100.288 224 224s-100.288 224-224 224c-123.712 0-224-100.288-224-224s100.288-224 224-224z" />
<glyph unicode="&#xe90e;" glyph-name="close-2" d="M512.001 357.485l-274.745-274.746-90.509 90.509 274.745 274.748-274.745 274.745 90.509 90.509 274.745-274.745 274.745 274.745 90.509-90.509-274.744-274.745 274.744-274.748-90.509-90.509-274.745 274.746z" />
<glyph unicode="&#xe90f;" glyph-name="arrow-bottom1" d="M448 282.509v549.491h128v-549.491l210.746 210.746 90.509-90.51-365.254-365.254-365.255 365.254 90.51 90.51 210.745-210.746z" />
<glyph unicode="&#xe910;" glyph-name="arrow-bottom-left" d="M410.509 255.994h293.491v-128h-512v512.001h128v-293.49l402.746 402.745 90.509-90.509-402.745-402.747z" />
<glyph unicode="&#xe911;" glyph-name="arrow-bottom-right" d="M704 346.505v293.49h128v-512.001h-511.999v128h293.491l-402.745 402.747 90.509 90.509 402.744-402.745z" />
<glyph unicode="&#xe912;" glyph-name="arrow-left" d="M346.509 511.995h549.491v-128h-549.491l210.746-210.747-90.51-90.509-365.255 365.256 365.255 365.255 90.51-90.509-210.746-210.746z" />
<glyph unicode="&#xe913;" glyph-name="arrow-right" d="M677.491 383.995h-549.491v128h549.491l-210.746 210.746 90.51 90.509 365.254-365.255-365.254-365.256-90.51 90.509 210.746 210.747z" />
<glyph unicode="&#xe914;" glyph-name="arrow-top1" d="M576 613.481v-549.494h-128v549.494l-210.745-210.746-90.51 90.51 365.255 365.254 365.254-365.254-90.509-90.51-210.746 210.746z" />
<glyph unicode="&#xe915;" glyph-name="arrow-top-left" d="M320 549.491v-293.491h-128v512h512v-128h-293.491l402.745-402.746-90.509-90.509-402.746 402.745z" />
<glyph unicode="&#xe916;" glyph-name="arrow-top-right" d="M613.491 640h-293.491v128h512v-512h-128v293.491l-402.745-402.745-90.51 90.509 402.746 402.746z" />
<glyph unicode="&#xe917;" glyph-name="bookmark" d="M192-64l320 192 320-192v896c0 70.692-57.306 128-128 128h-384c-70.692 0-128-57.308-128-128v-896zM704 162.074l-192 115.2-192-115.2v669.926h384v-669.926z" />
<glyph unicode="&#xe918;" glyph-name="browser" d="M128 0c-70.692 0-128 57.306-128 128v640c0 70.692 57.308 128 128 128h768c70.694 0 128-57.308 128-128v-640c0-70.694-57.306-128-128-128h-768zM128 128h768v448h-768v-448zM128 704h768v64h-768v-64z" />
<glyph unicode="&#xe919;" glyph-name="calendar" d="M128 512h768v-448h-768v448zM128 640v128h768v-128h-768zM1024 768c0 70.692-57.306 128-128 128v64h-128v-64h-512v64h-128v-64c-70.692 0-128-57.308-128-128v-704c0-70.694 57.308-128 128-128h768c70.694 0 128 57.306 128 128v704z" />
<glyph unicode="&#xe91a;" glyph-name="call-phone" d="M487.047 423.137c-34.659 34.692-63.301 72.179-78.5 102.547-4.99 9.972-8.094 18.337-9.457 24.317l30.741 30.76c6.744 6.749 9.985 10.035 14.176 14.439 8.877 9.329 16.278 17.855 22.788 26.628 29.291 39.471 40.176 82.44 5.503 121.133-65.649 91.83-109.812 148.628-138.127 176.597-58.424 57.71-153.607 49.979-204.274 0.057-24.465-24.105-32.781-32.417-57.903-57.932-146.71-146.781-59.212-450.232 171.977-681.638 231.149-231.366 534.62-318.918 681.724-171.744 23.091 22.259 42.822 42.003 58.438 58.502 49.427 52.243 56.89 143.322-0.378 202.829-27.232 28.294-81.389 70.319-177.178 138.849-35.040 31.063-76.019 24.324-112.429 0.44-16.403-10.759-27.936-21.281-49.664-43.029l-30.712-30.725c-5.972 1.363-14.326 4.465-24.282 9.45-30.355 15.202-67.812 43.854-102.445 78.52zM696.832 237.28l38.144 38.163c6.515 6.522 11.667 11.552 15.93 15.501 77.229-55.674 122.426-91.078 140.678-110.048 6.208-6.445 5.062-20.403-0.378-26.15-14.118-14.918-32.525-33.338-55.155-55.168-83.507-83.526-313.746-17.107-501.58 170.906-187.906 188.083-254.313 418.387-171.658 501.084 24.991 25.38 32.851 33.236 56.868 56.9 3.813 3.757 19.55 5.036 24.589 0.057 19.715-19.474 56.628-66.522 110.584-141.352-1.107-1.206-2.282-2.461-3.524-3.766-3.245-3.41-5.979-6.181-11.999-12.207l-38.12-38.14c-73.396-73.386-15.153-189.768 95.336-300.36 110.425-110.529 226.887-168.852 300.284-95.419z" />
<glyph unicode="&#xe91b;" glyph-name="camera" d="M290.052 860.455l0.012 0.019 3.886 6.098c40.696 63.4 71.224 93.428 128.451 93.428h179.2c57.229 0 87.757-30.028 128.448-93.428l3.891-6.102c3.322-5.217 7.693-12.085 9.274-14.526 3.84-5.926 6.874-10.388 9.504-13.944h117.683c85.856 0 153.6-72.584 153.6-160v-512c0-87.418-67.744-160-153.6-160h-716.8c-85.855 0-153.6 72.582-153.6 160v512c0 87.416 67.745 160 153.6 160h117.683c2.628 3.556 5.665 8.017 9.505 13.944 1.58 2.438 5.944 9.296 9.264 14.511zM401.667 797.428l-3.14-4.929c-3.363-5.284-8.369-13.151-10.32-16.163-5.764-8.895-10.608-15.964-15.59-22.559-23.418-31.005-47.705-49.777-84.617-49.777h-134.4c-13.114 0-25.6-13.378-25.6-32v-512c0-18.624 12.486-32 25.6-32h716.8c13.114 0 25.6 13.376 25.6 32v512c0 18.622-12.486 32-25.6 32h-134.4c-36.915 0-61.197 18.771-84.614 49.777-4.986 6.596-9.83 13.664-15.592 22.559-1.951 3.012-6.959 10.881-10.321 16.165l-0.003 0.004-3.136 4.923c-10.916 17.005-18.16 26.829-24.378 32.946-1.018 1.001-170.874 1.626-170.874 1.626-7.255-7.743-14.499-17.567-25.415-34.572zM256 448c0-141.382 114.615-256 256-256 141.382 0 256 114.618 256 256 0 141.385-114.618 256-256 256-141.385 0-256-114.615-256-256zM512 320c70.692 0 128 57.308 128 128s-57.308 128-128 128c-70.692 0-128-57.308-128-128s57.308-128 128-128zM832 608c0-17.673-14.33-32-32-32s-32 14.327-32 32c0 17.673 14.33 32 32 32s32-14.327 32-32z" />
<glyph unicode="&#xe91c;" glyph-name="chevron-bottom1" d="M850.746 685.25l90.509-90.509-429.254-429.256-429.255 429.256 90.51 90.509 338.745-338.745 338.746 338.745z" />
<glyph unicode="&#xe91d;" glyph-name="chevron-top" d="M512 549.481l-338.745-338.748-90.51 90.515 429.255 429.252 429.254-429.252-90.509-90.515-338.746 338.748z" />
<glyph unicode="&#xe91e;" glyph-name="circle-arrow-bottom" d="M512-64c-282.77 0-512 229.229-512 512s229.23 512 512 512c282.771 0 512-229.23 512-512s-229.229-512-512-512zM512 64c212.077 0 384 171.923 384 384s-171.923 384-384 384c-212.077 0-384-171.923-384-384s171.923-384 384-384zM658.746 493.255l-82.746-82.746v293.491h-128v-293.491l-82.745 82.746-90.51-90.51 237.255-237.254 237.254 237.254-90.509 90.51z" />
<glyph unicode="&#xe91f;" glyph-name="circle-arrow-left" d="M512-64c-282.77 0-512 229.229-512 512s229.23 512 512 512c282.771 0 512-229.23 512-512s-229.229-512-512-512zM512 64c212.077 0 384 171.923 384 384s-171.923 384-384 384c-212.077 0-384-171.923-384-384s171.923-384 384-384zM768 512h-293.491l82.746 82.745-90.51 90.51-237.254-237.255 237.254-237.254 90.51 90.509-82.746 82.746h293.491v128z" />
<glyph unicode="&#xe920;" glyph-name="circle-arrow-right" d="M512-64c-282.77 0-512 229.229-512 512s229.23 512 512 512c282.771 0 512-229.23 512-512s-229.229-512-512-512zM512 64c212.077 0 384 171.923 384 384s-171.923 384-384 384c-212.077 0-384-171.923-384-384s171.923-384 384-384zM466.745 594.745l82.746-82.745h-293.491v-128h293.491l-82.746-82.746 90.51-90.509 237.254 237.254-237.254 237.255-90.51-90.51z" />
<glyph unicode="&#xe921;" glyph-name="circle-arrow-top" d="M512-64c-282.77 0-512 229.229-512 512s229.23 512 512 512c282.771 0 512-229.23 512-512s-229.229-512-512-512zM512 64c212.077 0 384 171.923 384 384s-171.923 384-384 384c-212.077 0-384-171.923-384-384s171.923-384 384-384zM576 192v293.491l82.746-82.746 90.509 90.51-237.254 237.254-237.255-237.254 90.51-90.51 82.745 82.746v-293.491h128z" />
<glyph unicode="&#xe922;" glyph-name="circle-chevron-bottom" d="M512-64c-282.77 0-512 229.229-512 512s229.23 512 512 512c282.771 0 512-229.23 512-512s-229.229-512-512-512zM512 64c212.077 0 384 171.923 384 384s-171.923 384-384 384c-212.077 0-384-171.923-384-384s171.923-384 384-384zM749.254 466.745l-90.509 90.51-146.746-146.746-146.745 146.746-90.51-90.51 237.255-237.254 237.254 237.254z" />
<glyph unicode="&#xe923;" glyph-name="circle-chevron-left" d="M512-64c-282.77 0-512 229.229-512 512s229.23 512 512 512c282.771 0 512-229.23 512-512s-229.229-512-512-512zM512 64c212.077 0 384 171.923 384 384s-171.923 384-384 384c-212.077 0-384-171.923-384-384s171.923-384 384-384zM621.255 301.254l-146.746 146.746 146.746 146.745-90.51 90.51-237.254-237.255 237.254-237.254 90.51 90.509z" />
<glyph unicode="&#xe924;" glyph-name="circle-chevron-right" d="M512-64c-282.77 0-512 229.229-512 512s229.23 512 512 512c282.771 0 512-229.23 512-512s-229.229-512-512-512zM512 64c212.077 0 384 171.923 384 384s-171.923 384-384 384c-212.077 0-384-171.923-384-384s171.923-384 384-384zM402.745 594.745l146.746-146.745-146.746-146.746 90.51-90.509 237.254 237.254-237.254 237.255-90.51-90.51z" />
<glyph unicode="&#xe925;" glyph-name="circle-chevron-top" d="M512-64c-282.77 0-512 229.229-512 512s229.23 512 512 512c282.771 0 512-229.23 512-512s-229.229-512-512-512zM512 64c212.077 0 384 171.923 384 384s-171.923 384-384 384c-212.077 0-384-171.923-384-384s171.923-384 384-384zM274.745 429.255l90.51-90.51 146.745 146.746 146.746-146.746 90.509 90.51-237.254 237.254-237.255-237.254z" />
<glyph unicode="&#xe926;" glyph-name="circle-minus" d="M512-64c-282.77 0-512 229.229-512 512s229.23 512 512 512c282.771 0 512-229.23 512-512s-229.229-512-512-512zM512 64c212.077 0 384 171.923 384 384s-171.923 384-384 384c-212.077 0-384-171.923-384-384s171.923-384 384-384zM256 512v-128h512v128h-512z" />
<glyph unicode="&#xe927;" glyph-name="circle-plus" d="M512-64c-282.77 0-512 229.229-512 512s229.23 512 512 512c282.771 0 512-229.23 512-512s-229.229-512-512-512zM512 64c212.077 0 384 171.923 384 384s-171.923 384-384 384c-212.077 0-384-171.923-384-384s171.923-384 384-384zM768 512h-192v192h-128v-192h-192v-128h192v-192h128v192h192v128z" />
<glyph unicode="&#xe928;" glyph-name="circle-x" d="M512-64c-282.77 0-512 229.229-512 512s229.23 512 512 512c282.771 0 512-229.23 512-512s-229.229-512-512-512zM512 64c212.077 0 384 171.923 384 384s-171.923 384-384 384c-212.077 0-384-171.923-384-384s171.923-384 384-384zM365.255 210.746l146.745 146.745 146.746-146.745 90.509 90.509-146.745 146.746 146.745 146.745-90.509 90.51-146.746-146.746-146.745 146.746-90.51-90.51 146.746-146.745-146.746-146.746 90.51-90.509z" />
<glyph unicode="&#xe929;" glyph-name="copy" d="M448 896h384c73.747 0 128-54.254 128-128v-384c0-73.747-54.253-128-128-128h-128v-128c0-73.747-54.253-128-128-128h-384c-73.746 0-128 54.253-128 128v384c0 73.746 54.254 128 128 128h128v128c0 73.746 54.254 128 128 128zM320 512h-128v-384h384v128h-128c-73.746 0-128 54.253-128 128v128zM448 768v-384h384v384h-384z" />
<glyph unicode="&#xe92a;" glyph-name="dropdowm" d="M512 512h256l-256-256-256 256h256z" />
<glyph unicode="&#xe92b;" glyph-name="external-link" d="M493.069 338.745l402.745 402.746v-229.491h128v448h-448v-128h229.491l-402.746-402.745 90.51-90.51zM960 64v256h-128v-256h-704v704h256v128h-256c-70.692 0-128-57.308-128-128v-704c0-70.694 57.308-128 128-128h704c70.694 0 128 57.306 128 128z" />
<glyph unicode="&#xe92c;" glyph-name="eye" d="M876.646 649.462c-96.198 113.114-217.658 182.538-364.646 182.538-146.986 0-268.447-69.424-364.645-182.538-56.17-66.048-92.366-131.768-110.759-177.647l-9.541-23.799 9.53-23.804c18.371-45.886 54.541-111.611 110.699-177.665 96.172-113.12 217.655-182.547 364.716-182.547 147.059 0 268.544 69.427 364.717 182.547 56.16 66.054 92.326 131.779 110.701 177.665l9.53 23.804-9.542 23.799c-18.394 45.879-54.592 111.599-110.758 177.647zM779.136 566.538c26.778-31.482 49.568-65.466 68.262-99.412 3.866-7.016 7.238-13.432 10.125-19.139-2.88-5.705-6.253-12.118-10.112-19.13-18.675-33.943-41.453-67.923-68.218-99.401-73.862-86.882-162.357-137.455-267.194-137.455s-193.332 50.573-267.196 137.455c-26.762 31.478-49.538 65.458-68.217 99.401-3.859 7.012-7.229 13.425-10.113 19.13 2.888 5.708 6.263 12.124 10.127 19.139 18.697 33.947 41.487 67.931 68.261 99.412 73.892 86.886 162.378 137.462 267.139 137.462s193.248-50.576 267.136-137.462zM512 256c-106.039 0-192 85.962-192 192s85.961 192 192 192c106.038 0 192-85.962 192-192s-85.962-192-192-192zM576 448c0-35.346-28.654-64-64-64s-64 28.654-64 64c0 35.346 28.653 64 64 64s64-28.654 64-64z" />
<glyph unicode="&#xe92d;" glyph-name="file" d="M192 960h538.509l229.491-229.491v-666.509c0-70.694-57.306-128-128-128h-640c-70.692 0-128 57.306-128 128v768c0 70.692 57.308 128 128 128zM576 832h-384v-768h640v512h-128c-70.692 0-128 57.308-128 128v128zM704 805.491v-101.491h101.491l-101.491 101.491z" />
<glyph unicode="&#xe92e;" glyph-name="folder" d="M1024 640c0 70.692-57.306 128-128 128h-383.885c2.568 0.014 1.753 1.006-3.876 7.852-1.382 1.682-3.055 3.716-5.040 6.176-1.962 2.433-7.453 9.508-12.283 15.732-3.423 4.41-6.513 8.394-7.781 9.994-45.827 57.818-91.455 88.246-163.135 88.246h-192c-70.692 0-128-57.308-128-128v-640c0-70.694 57.308-128 128-128h768c70.694 0 128 57.306 128 128v512zM896 640v-512h-768v640h192c24.591 0 38.849-9.508 62.822-39.754 0.753-0.95 2.913-3.735 5.605-7.205 5.144-6.631 12.23-15.764 15.146-19.379 32.183-39.896 62.122-61.414 108.084-61.661l384.342-0.001z" />
<glyph unicode="&#xe92f;" glyph-name="globe" d="M512-64c-282.77 0-512 229.229-512 512s229.23 512 512 512c282.771 0 512-229.23 512-512s-229.229-512-512-512zM886.509 362.773c-14.47-3.258-29.587-6.459-45.312-9.562-25.786-5.089-51.942-9.679-78.394-13.708-7.974-81.538-24.947-156.264-49.638-218.658 86.47 53.286 150.221 139.898 173.344 241.928zM767.795 469.924c-2.176 115.092-21.427 221.315-54.63 305.231 96.838-59.673 165.184-161.141 179.878-279.26-23.187-5.83-48.838-11.623-76.627-17.107-16.064-3.169-32.275-6.13-48.621-8.865zM639.984 453.646c-42.322-3.674-85.102-5.646-127.984-5.646-42.924 0-85.693 1.975-127.984 5.655 0.624 110.055 19.443 212.182 51.044 285.918 26.801 62.536 57.089 92.427 76.94 92.427s50.138-29.891 76.94-92.427c31.602-73.739 50.421-175.869 51.044-285.927zM261.189 339.556c-26.276 4.017-52.262 8.591-77.898 13.66-15.911 3.146-31.191 6.39-45.831 9.697 23.095-102.094 86.863-188.756 173.377-242.068-24.696 62.406-41.674 137.152-49.647 218.711zM256.207 469.991c2.178 115.067 21.428 221.265 54.629 305.164-96.753-59.619-165.057-160.956-179.838-278.936 25.949-6.258 54.716-13.004 77.124-17.436 15.891-3.142 31.925-6.079 48.085-8.793zM632.107 324.583c-39.706-2.992-79.812-4.583-120.107-4.583-40.328 0-80.426 1.592-120.108 4.589 8.406-63.917 23.248-121.683 43.168-168.16 26.801-62.541 57.089-92.429 76.94-92.429s50.138 29.888 76.94 92.429c19.919 46.477 34.761 104.237 43.167 168.154z" />
<glyph unicode="&#xe930;" glyph-name="heart" d="M716.051 895.999c-67.238 0.001-111.442-7.78-161.997-31.347-14.925-6.957-29.142-15.050-42.596-24.26-12.772 8.589-26.238 16.214-40.349 22.861-51.469 24.244-97.864 32.747-162.745 32.747-177.9 0-308.364-141.671-308.364-325.115 0-137.471 79.139-268.050 224.752-392.78 75.411-64.595 171.47-128.365 240.726-162.522l46.522-22.944 46.522 22.944c69.256 34.157 165.312 97.926 240.73 162.522 145.613 124.73 224.749 255.308 224.749 392.78 0 181.619-131.59 324.419-307.949 325.114zM896 570.885c0-93.692-60.083-192.83-180.019-295.564-63.674-54.541-144.968-109.19-203.981-139.827-59.012 30.637-140.307 85.286-203.979 139.827-119.937 102.733-180.021 201.872-180.021 295.564 0 115 75.62 197.115 180.364 197.115 47.364 0 75.556-5.167 108.199-20.543 18.844-8.876 35.378-20.513 49.651-35.013l46.001-46.737 45.603 47.126c14.592 15.080 31.331 26.954 50.318 35.805 31.593 14.728 57.919 19.361 107.666 19.361 103.296-0.408 180.198-83.866 180.198-197.114z" />
<glyph unicode="&#xe931;" glyph-name="info" d="M0 448c0-282.771 229.23-512 512-512s512 229.229 512 512c0 282.77-229.229 512-512 512s-512-229.23-512-512zM896 448c0-212.077-171.923-384-384-384s-384 171.923-384 384c0 212.077 171.923 384 384 384s384-171.923 384-384zM576.231 256.109h-128.042v255.997h128.042v-255.997zM576.042 640.106c0-35.346-28.664-64-64.021-64s-64.021 28.654-64.021 64c0 35.347 28.663 64 64.021 64s64.021-28.653 64.021-64z" />
<glyph unicode="&#xe932;" glyph-name="lock" d="M256 704v-128c-68.374 0-128-49.688-128-117.333v-405.336c0-67.642 59.626-117.331 128-117.331h512c68.378 0 128 49.69 128 117.331v405.336c0 67.645-59.622 117.333-128 117.333v128c0 141.385-114.618 256-256 256-141.385 0-256-114.615-256-256zM640 704v-128h-256v128c0 70.692 57.308 128 128 128s128-57.308 128-128zM256 64v384h512v-384h-512zM576 256c0-35.347-28.654-64-64-64s-64 28.653-64 64c0 35.347 28.654 64 64 64s64-28.653 64-64z" />
<glyph unicode="&#xe933;" glyph-name="mail" d="M128 832h768c70.694 0 128-57.308 128-128v-512c0-70.694-57.306-128-128-128h-768c-70.692 0-128 57.306-128 128v512c0 70.692 57.308 128 128 128zM128 512v-320h768v326.756l-384-198.756-384 192zM128 640l384.001-191.234 383.999 191.234v64h-768v-64z" />
<glyph unicode="&#xe934;" glyph-name="menu" d="M128 768v-128h768v128h-768zM128 384v128h768v-128h-768zM128 128v128h768v-128h-768z" />
<glyph unicode="&#xe935;" glyph-name="minus" d="M128 384v128h768v-128h-768z" />
<glyph unicode="&#xe936;" glyph-name="options" d="M640 832c-83.598 0-154.717-53.428-181.075-128h-458.925v-128h458.925c26.357-74.572 97.476-128 181.075-128 106.042 0 192 85.962 192 192s-85.958 192-192 192zM320 448c-83.598 0-154.717-53.428-181.075-128h-138.925v-128h138.925c26.357-74.573 97.476-128 181.075-128 106.038 0 192 85.958 192 192 0 106.038-85.962 192-192 192zM576 320h448v-128h-448v128zM384 256c0-35.347-28.654-64-64-64s-64 28.653-64 64c0 35.347 28.654 64 64 64s64-28.653 64-64zM896 704h128v-128h-128v128zM704 640c0-35.346-28.653-64-64-64s-64 28.654-64 64c0 35.346 28.653 64 64 64s64-28.654 64-64z" />
<glyph unicode="&#xe937;" glyph-name="paperclip" d="M553.805 793.091l-352.647-342.322c-90.888-88.227-90.888-231.274 0-319.498 90.889-88.23 238.248-88.23 329.137 0l399.663 387.963 94.042-91.286-399.666-387.967c-142.826-138.643-374.39-138.643-517.215 0s-142.825 363.43 0 502.074l352.646 342.322c103.873 100.832 272.286 100.832 376.158 0s103.872-264.312 0-365.143l-352.648-342.324c-64.92-63.014-170.177-63.014-235.098 0-64.92 63.021-64.92 165.197 0 228.217l352.647 342.322 94.036-91.286-352.644-342.325c-12.984-12.602-12.984-33.037 0-45.638 12.984-12.608 34.036-12.608 47.020 0l352.646 342.321c51.936 50.415 51.936 132.156 0 182.572s-136.141 50.416-188.077 0z" />
<glyph unicode="&#xe938;" glyph-name="paperclip-vertical" d="M320 704v-416c0-123.712 100.288-224 224-224s224 100.288 224 224v480h128v-480c0-194.406-157.594-352-352-352-194.404 0-352 157.594-352 352v416c0 141.385 114.615 256 256 256s256-114.615 256-256v-416c0-88.365-71.635-160-160-160s-160 71.635-160 160v416h128v-416c0-17.67 14.327-32 32-32s32 14.33 32 32v416c0 70.692-57.308 128-128 128s-128-57.308-128-128z" />
<glyph unicode="&#xe939;" glyph-name="pencil" d="M704 896c33.843 0 63.162-13.407 86.682-37.114l132.307-132.305c23.725-23.724 37.011-52.836 37.011-86.58 0-33.526-13.184-68.306-37.011-92.134l-482.015-481.786c-33.51-38.656-81.013-62.406-136.564-66.182h-240.41v64l0.208 181.562c4.079 50.49 27.551 97.434 62.637 128.307l485.054 485.050c23.803 23.925 58.526 37.185 92.1 37.185zM214.5 280.57c-13.156-11.635-21.294-27.91-22.5-40.262v-112.467l107.89-0.096c17.146 1.21 33.107 9.19 47.469 25.51l280.438 280.439-130.036 130.036-283.26-283.16zM588.286 654.223l130.018-130.020 113.024 113.020-130.003 130.001-113.039-113.001z" />
<glyph unicode="&#xe93a;" glyph-name="pin" d="M446.033-5.178l65.967-58.79 65.967 58.79c210.648 187.725 318.033 354.483 318.033 510.579 0 221.612-170.074 390.599-384 390.599-213.928 0-384-168.988-384-390.599 0-156.096 107.385-322.854 318.033-510.579zM512 768c143.418 0 256-111.864 256-262.599 0-106.857-83.072-239.603-256-397.695-172.928 158.093-256 290.838-256 397.695 0 150.735 112.581 262.599 256 262.599zM512 704c106.038 0 192-85.962 192-192s-85.962-192-192-192c-106.038 0-192 85.962-192 192s85.962 192 192 192zM448 512c0 35.346 28.654 64 64 64s64-28.654 64-64c0-35.346-28.654-64-64-64s-64 28.654-64 64z" />
<glyph unicode="&#xe93b;" glyph-name="plus" d="M576 512h320v-128h-320v-320h-128v320h-320v128h320v320h128v-320z" />
<glyph unicode="&#xe93c;" glyph-name="printer" d="M128 704c-70.692 0-128-57.308-128-128v-320c0-70.694 57.308-128 128-128h64v-128h640v128h64c70.694 0 128 57.306 128 128v320c0 70.692-57.306 128-128 128h-64v192h-640v-192h-64zM704 704h-384v64h384v-64zM896 256h-64v128h-640v-128h-64v320h768v-320zM704 256v-128h-384v128h384zM832 480c0 17.673-14.33 32-32 32s-32-14.327-32-32c0-17.673 14.33-32 32-32s32 14.327 32 32z" />
<glyph unicode="&#xe93d;" glyph-name="question-circle" d="M0 448c0-282.771 229.23-512 512-512s512 229.229 512 512c0 282.77-229.229 512-512 512s-512-229.23-512-512zM896 448c0-212.077-171.923-384-384-384s-384 171.923-384 384c0 212.077 171.923 384 384 384s384-171.923 384-384zM448 320v32c0 77.928 27.108 116.331 89.6 163.2 33.508 25.131 38.4 32.061 38.4 60.8 0 35.346-28.653 64-64 64s-64-28.654-64-64h-128c0 106.038 85.962 192 192 192s192-85.962 192-192c0-77.928-27.11-116.331-89.6-163.2-33.508-25.131-38.4-32.061-38.4-60.8v-32h-128zM576.042 192.109c0-35.347-28.664-64-64.021-64s-64.021 28.653-64.021 64c0 35.341 28.663 64 64.021 64s64.021-28.659 64.021-64z" />
<glyph unicode="&#xe93e;" glyph-name="star" d="M283.233 327.777l-54.004-314.868 282.771 148.659 282.771-148.659-54.003 314.868 228.768 222.993-316.147 45.939-141.389 286.478-141.386-286.478-316.148-45.939 228.766-222.993zM624.771 246.893l-112.771 59.29-112.77-59.29 21.537 125.572-91.233 88.931 126.081 18.321 56.385 114.249 56.385-114.249 126.079-18.321-91.231-88.931 21.537-125.572z" />
<glyph unicode="&#xe93f;" glyph-name="target" d="M512-64c-282.77 0-512 229.229-512 512s229.23 512 512 512c282.771 0 512-229.23 512-512s-229.229-512-512-512zM512 64c212.077 0 384 171.923 384 384s-171.923 384-384 384c-212.077 0-384-171.923-384-384s171.923-384 384-384zM192 448c0-176.73 143.269-320 320-320s320 143.27 320 320c0 176.731-143.27 320-320 320s-320-143.269-320-320zM512 256c106.038 0 192 85.962 192 192s-85.962 192-192 192c-106.038 0-192-85.962-192-192s85.962-192 192-192zM384 448c0-70.692 57.308-128 128-128s128 57.308 128 128c0 70.692-57.308 128-128 128s-128-57.308-128-128z" />
<glyph unicode="&#xe940;" glyph-name="time" d="M512-64c-282.77 0-512 229.229-512 512s229.23 512 512 512c282.771 0 512-229.23 512-512s-229.229-512-512-512zM512 64c212.077 0 384 171.923 384 384s-171.923 384-384 384c-212.077 0-384-171.923-384-384s171.923-384 384-384zM448.189 384.106h256.003v128h-127.961v192h-128.042v-320z" />
<glyph unicode="&#xe941;" glyph-name="wi-fi" d="M872.403 479.196l92.077 88.916c-245.536 254.259-650.7 261.332-904.959 15.796l88.916-92.076c203.408 196.429 527.538 190.771 723.967-12.637zM780.326 390.28l-92.070-88.916c-98.218 101.704-260.283 104.532-361.987 6.317l-88.916 92.077c152.556 147.321 395.654 143.078 542.973-9.478zM504.102 123.533l-88.916 92.070c50.852 49.107 131.884 47.693 180.991-3.155l-92.076-88.915z" />
<glyph unicode="&#xe942;" glyph-name="close" d="M512.001 357.485l-274.745-274.746-90.509 90.509 274.745 274.747-274.745 274.746 90.509 90.509 274.745-274.745 274.745 274.745 90.509-90.509-274.744-274.746 274.744-274.747-90.509-90.509-274.745 274.746z" />
<glyph unicode="&#xe943;" horiz-adv-x="1890" d="M157.538 960h1575.385c87.006 0 157.538-70.532 157.538-157.538v-630.154c0-87.006-70.532-157.538-157.538-157.538h-1575.385c-87.006 0-157.538 70.532-157.538 157.538v630.154c0 87.006 70.532 157.538 157.538 157.538z" />
<glyph unicode="&#xe944;" horiz-adv-x="1890" d="M518.208 411.451v-160.374h-84.756v455.601h148.401c30.458 0 56.819-3.571 79.084-10.713s40.645-17.119 55.138-29.932c14.494-12.813 25.206-28.147 32.138-46.001s10.398-37.389 10.398-58.604c0-22.055-3.675-42.325-11.028-60.81-7.352-18.274-18.379-34.028-33.083-47.262s-33.083-23.526-55.138-30.878c-22.055-7.352-47.892-11.028-77.509-11.028h-63.646zM518.208 477.617h63.646c15.544 0 29.093 1.89 40.645 5.671 11.553 3.991 21.11 9.557 28.672 16.699 7.562 7.352 13.233 16.174 17.014 26.466 3.781 10.502 5.671 22.16 5.671 34.974 0 12.183-1.89 23.211-5.671 33.083s-9.452 18.274-17.014 25.206c-7.562 6.932-17.119 12.183-28.672 15.754-11.552 3.781-25.101 5.671-40.645 5.671h-63.646v-163.525zM1176.308 251.077h-65.536c-7.349 0-13.438 1.786-18.274 5.356-4.616 3.781-7.979 8.402-10.082 13.863l-34.028 92.948h-188.731l-34.028-92.948c-1.678-4.831-5.041-9.242-10.082-13.233-4.829-3.991-10.815-5.986-17.959-5.986h-65.849l178.961 455.601h86.646l178.964-455.601zM881.396 423.109h145.25l-55.454 151.552c-2.521 6.721-5.356 14.598-8.507 23.631-2.938 9.242-5.876 19.22-8.822 29.932-2.938-10.713-5.876-20.69-8.822-29.932-2.725-9.242-5.459-17.329-8.192-24.261l-55.454-150.922zM1498.144 706.678v-69.632h-137.058v-385.969h-84.756v385.969h-137.689v69.632h359.503z" />
<glyph unicode="&#xe945;" horiz-adv-x="1733" d="M748.308 802.462c0 65.255-52.899 118.154-118.154 118.154h-219.994l-370.775-370.775v-456.301c0-65.252 52.899-118.154 118.154-118.154h472.615c65.255 0 118.154 52.901 118.154 118.154v708.923z" />
<glyph unicode="&#xe946;" horiz-adv-x="1733" d="M236.308 566.154h-236.308c0.259 0 0.507 0.103 0.691 0.286l393.096 393.56c0.033 0 0.060-0.027 0.060-0.060v-236.248c0-87.006-70.532-157.538-157.538-157.538z" />
<glyph unicode="&#xe947;" horiz-adv-x="1733" d="M338.078 215.158c0 6.512 1.156 12.708 3.466 18.59 2.521 5.882 5.882 10.923 10.082 15.124 4.411 4.201 9.557 7.562 15.439 10.082s12.183 3.781 18.905 3.781c6.512 0 12.708-1.26 18.59-3.781s10.923-5.882 15.124-10.082c4.201-4.201 7.562-9.242 10.082-15.124s3.781-12.078 3.781-18.59c0-6.721-1.26-13.023-3.781-18.905-2.521-5.671-5.882-10.608-10.082-14.809s-9.242-7.457-15.124-9.767c-5.882-2.521-12.078-3.781-18.59-3.781-6.721 0-13.023 1.26-18.905 3.781-5.882 2.31-11.028 5.567-15.439 9.767-4.201 4.201-7.562 9.137-10.082 14.809-2.31 5.882-3.466 12.183-3.466 18.905zM590.208 332.682v-160.374h-84.756v455.601h148.401c30.457 0 56.819-3.571 79.084-10.713s40.645-17.119 55.14-29.932c14.494-12.813 25.206-28.147 32.138-46.001s10.398-37.389 10.398-58.604c0-22.055-3.679-42.325-11.028-60.81-7.357-18.274-18.385-34.028-33.085-47.262-14.704-13.233-33.083-23.526-55.138-30.878s-47.892-11.028-77.509-11.028h-63.646zM590.208 398.848h63.646c15.544 0 29.092 1.89 40.645 5.671 11.552 3.991 21.11 9.557 28.672 16.699 7.562 7.352 13.233 16.174 17.014 26.466 3.781 10.502 5.671 22.16 5.671 34.974 0 12.183-1.89 23.211-5.671 33.083s-9.452 18.274-17.014 25.206c-7.562 6.932-17.12 12.183-28.672 15.754-11.553 3.781-25.101 5.671-40.645 5.671h-63.646v-163.525zM1248.311 172.308h-65.536c-7.349 0-13.446 1.786-18.274 5.356-4.624 3.781-7.979 8.402-10.082 13.863l-34.028 92.948h-188.731l-34.028-92.948c-1.678-4.831-5.041-9.242-10.082-13.233-4.829-3.991-10.815-5.986-17.959-5.986h-65.851l178.964 455.601h86.646l178.964-455.601zM953.399 344.34h145.25l-55.454 151.552c-2.521 6.721-5.356 14.598-8.507 23.631-2.938 9.242-5.884 19.22-8.822 29.932-2.938-10.713-5.884-20.69-8.822-29.932-2.733-9.242-5.459-17.329-8.192-24.261l-55.454-150.922zM1570.139 627.909v-69.632h-137.058v-385.969h-84.756v385.969h-137.689v69.632h359.503z" />
<glyph unicode="&#xe948;" glyph-name="arrow-bottom2" d="M469.363 167.006v664.994h85.333v-664.994l268.497 268.497 60.339-60.339-371.503-371.503-371.504 371.503 60.34 60.339 268.497-268.497z" />
<glyph unicode="&#xe949;" glyph-name="arrow-forward" d="M792.99 362.692l-183.164-183.164 60.339-60.339 286.174 286.17-286.174 286.168-60.339-60.34 183.164-183.162h-238.327c-287.846 0-383.998 99.996-383.998 383.998h-85.333c0-330.396 133.592-469.332 469.332-469.332h238.327z" />
<glyph unicode="&#xe94a;" glyph-name="arrow-top2" d="M554.692 728.987v-707.662h-85.333v707.662l-268.496-268.498-60.34 60.343 371.502 371.501 371.503-371.501-60.339-60.343-268.497 268.498z" />
<glyph unicode="&#xe94b;" glyph-name="chevrons-right1" d="M328.837 734.167l-60.34-60.34 225.83-225.831-225.83-225.83 60.34-60.339 286.169 286.17-286.169 286.171zM542.17 734.167l-60.339-60.34 225.83-225.831-225.83-225.83 60.339-60.339 286.17 286.17-286.17 286.171z" />
<glyph unicode="&#xe94c;" glyph-name="down" d="M328.741 606.083l195.842-195.412 195.84 195.412 60.16-60.16-256-255.999-256.002 255.999 60.16 60.16z" />
<glyph unicode="&#xe94d;" glyph-name="refresh-cw" d="M512 789.333c102.127 0 189.717-46.025 247.761-128h-162.428v-85.333h298.667v298.667h-85.333v-139.535c-73.604 89.081-179.021 139.535-298.667 139.535-235.642 0-426.667-191.025-426.667-426.667h85.333c0 188.513 152.82 341.333 341.333 341.333zM512 106.667c-102.128 0-189.716 46.025-247.763 128h162.429v85.333h-298.667v-298.667h85.333v139.533c73.605-89.079 179.020-139.533 298.667-139.533 235.639 0 426.667 191.027 426.667 426.667h-85.333c0-188.514-152.819-341.333-341.333-341.333z" />
<glyph unicode="&#xe94e;" glyph-name="up" d="M328.741 289.916l195.842 195.413 195.84-195.413 60.16 60.16-256 256.001-256.002-256.001 60.16-60.16z" />
<glyph unicode="&#xe94f;" horiz-adv-x="2048" d="M170.667 960h1706.667c94.257 0 170.667-76.41 170.667-170.667v-682.667c0-94.257-76.41-170.667-170.667-170.667h-1706.667c-94.257 0-170.667 76.41-170.667 170.667v682.667c0 94.257 76.41 170.667 170.667 170.667z" />
<glyph unicode="&#xe950;" horiz-adv-x="2048" d="M561.392 365.739v-173.739h-91.819v493.568h160.768c32.996 0 61.554-3.868 85.675-11.605s44.032-18.545 59.733-32.427c15.701-13.881 27.307-30.492 34.816-49.835s11.264-40.505 11.264-63.488c0-23.893-3.982-45.852-11.947-65.877-7.964-19.797-19.911-36.864-35.84-51.2s-35.84-25.487-59.733-33.451c-23.893-7.964-51.883-11.947-83.968-11.947h-68.949zM561.392 437.419h68.949c16.84 0 31.517 2.048 44.032 6.144 12.516 4.324 22.869 10.353 31.061 18.091 8.192 7.964 14.336 17.521 18.432 28.672 4.096 11.377 6.144 24.007 6.144 37.888 0 13.199-2.048 25.145-6.144 35.84s-10.24 19.797-18.432 27.307c-8.192 7.509-18.545 13.199-31.061 17.067-12.515 4.096-27.192 6.144-44.032 6.144h-68.949v-177.152zM1274.334 192h-70.997c-7.962 0-14.558 1.935-19.797 5.803-5.001 4.096-8.644 9.103-10.923 15.019l-36.864 100.693h-204.459l-36.864-100.693c-1.818-5.233-5.461-10.012-10.923-14.336-5.231-4.324-11.716-6.485-19.456-6.485h-71.336l193.875 493.568h93.867l193.877-493.568zM954.846 378.368h157.355l-60.075 164.181c-2.731 7.281-5.803 15.815-9.216 25.6-3.183 10.012-6.366 20.821-9.557 32.427-3.183-11.605-6.366-22.415-9.557-32.427-2.953-10.012-5.914-18.773-8.875-26.283l-60.075-163.499zM1622.989 685.568v-75.435h-148.48v-418.133h-91.819v418.133h-149.163v75.435h389.461z" />
<glyph unicode="&#xe951;" horiz-adv-x="1963" d="M170.667 917.333h1621.333c70.692 0 128-57.308 128-128v-682.667c0-70.692-57.308-128-128-128h-1621.333c-70.692 0-128 57.308-128 128v682.667c0 70.692 57.308 128 128 128z" />
<glyph unicode="&#xe952;" horiz-adv-x="1963" d="M738.987 685.568v-75.435h-148.48v-418.133h-91.819v418.133h-149.163v75.435h389.461zM915.61 445.952l-157.354 239.616h91.477c6.374 0 10.922-0.911 13.652-2.731 2.961-1.593 5.572-4.324 7.851-8.192l112.299-181.248c1.135 2.959 2.389 5.803 3.755 8.533 1.365 2.959 2.961 5.916 4.779 8.875l102.741 162.133c5.009 8.42 11.494 12.629 19.456 12.629h88.064l-159.061-235.861 163.499-257.707h-91.819c-6.144 0-11.153 1.593-15.019 4.779-3.644 3.185-6.716 6.827-9.216 10.923l-114.347 189.099c-0.913-2.731-1.937-5.348-3.072-7.851-1.135-2.276-2.278-4.437-3.413-6.485l-109.568-174.763c-2.5-3.868-5.572-7.509-9.215-10.923-3.64-3.185-8.192-4.779-13.653-4.779h-86.016l164.18 253.952zM1608.32 685.568v-75.435h-148.48v-418.133h-91.819v418.133h-149.163v75.435h389.461z" />
</font>
</defs>
</svg>
