<svg width="24" height="24" viewBox="0 0 24 24" fill="none" xmlns="http://www.w3.org/2000/svg">
<g opacity="0.4">
<path d="M20.25 2.85H16.8V2.25C16.8 1.8 16.5 1.5 16.05 1.5H7.95C7.5 1.5 7.2 1.8 7.2 2.25V2.85H3.75C3.3 2.85 3 3.3 3 3.6V21.75C3 22.2 3.3 22.5 3.75 22.5H20.25C20.7 22.5 21 22.2 21 21.75V3.6C21 3.3 20.7 2.85 20.25 2.85ZM8.7 3H15.45V4.2H8.7V3ZM19.5 21H4.5V4.35H7.2V4.95C7.2 5.4 7.5 5.7 7.95 5.7H16.2C16.65 5.7 16.95 5.4 16.95 4.95V4.35H19.5V21Z" fill="#323563"/>
<path d="M18.0002 7.65039H13.2002V9.15039H18.0002V7.65039Z" fill="#323563"/>
<path d="M18.0002 10.9502H13.2002V12.4502H18.0002V10.9502Z" fill="#323563"/>
<path d="M17.8499 14.0996H6.1499V15.5996H17.8499V14.0996Z" fill="#323563"/>
<path d="M17.8499 17.4004H6.1499V18.9004H17.8499V17.4004Z" fill="#323563"/>
<path d="M8.1 12.8998H9.6V10.7998H11.7V9.2998H9.6V7.0498H8.1V9.2998H6V10.7998H8.1V12.8998Z" fill="#323563"/>
</g>
</svg>
