<?xml version="1.0" standalone="no"?>
<!DOCTYPE svg PUBLIC "-//W3C//DTD SVG 1.1//EN" "http://www.w3.org/Graphics/SVG/1.1/DTD/svg11.dtd" >
<svg xmlns="http://www.w3.org/2000/svg">
<metadata>Generated by IcoMoon</metadata>
<defs>
<font id="icomoon" horiz-adv-x="1024">
<font-face units-per-em="1024" ascent="960" descent="-64" />
<missing-glyph horiz-adv-x="1024" />
<glyph unicode="&#x20;" horiz-adv-x="512" d="" />
<glyph unicode="&#xe900;" glyph-name="alert-circle" d="M42.669 426.667c0-259.204 210.128-469.333 469.335-469.333 259.204 0 469.333 210.129 469.333 469.333 0 259.206-210.129 469.333-469.333 469.333-259.207 0-469.335-210.128-469.335-469.333zM896 426.671c0-212.075-171.921-384-384-384-212.076 0-383.999 171.925-383.999 384 0 212.079 171.923 384.002 383.999 384.002 212.079 0 384-171.923 384-384.002zM512.017 170.744c23.573 0 42.684 19.102 42.684 42.667 0 23.561-19.11 42.667-42.684 42.667-23.569 0-42.679-19.106-42.679-42.667 0-23.565 19.11-42.667 42.679-42.667zM554.812 682.745h-85.359v-341.334h85.359v341.334z" />
<glyph unicode="&#xe901;" glyph-name="auto-edit" d="M938.667 384v-298.667c0-47.13-38.204-85.333-85.333-85.333h-682.667c-47.128 0-85.333 38.204-85.333 85.333v682.667c0 47.128 38.205 85.333 85.333 85.333h512v-85.333h-512v-682.667h682.667v298.667h85.333zM499.503 414.17l396.497 396.497 60.339-60.34-456.836-456.836-243.503 243.503 60.34 60.34 183.163-183.164z" />
<glyph unicode="&#xe902;" glyph-name="browser" d="M896 554.667h-767.999v-426.667h767.999v426.667zM896 639.997v85.333h-767.999v-85.333h767.999zM127.997 42.667c-47.128 0-85.333 38.204-85.333 85.333v597.333c0 47.128 38.205 85.333 85.333 85.333h767.998c47.13 0 85.333-38.205 85.333-85.333v-597.333c0-47.13-38.204-85.333-85.333-85.333h-767.998z" />
<glyph unicode="&#xe903;" glyph-name="brush" d="M853.329-42.666h-682.665v512c0 64.767 36.169 85.263 137.073 115.534 59.096 17.728 76.26 27.455 76.26 33.799 0 32.751-2.999 54.743-9.393 80.319 1.236-4.946-6.051 23.232-7.66 30.741-2.83 13.206-4.28 25.225-4.28 38.273 0 70.864 66.661 128 149.332 128 82.675 0 149.333-57.136 149.333-128 0-13.048-1.451-25.068-4.279-38.273-1.609-7.509-8.896-35.688-7.659-30.741-6.396-25.576-9.395-47.567-9.395-80.319 0-6.301 17.212-16.050 76.433-33.795 101.039-30.277 137.276-50.835 136.9-115.785v-85.086l0.004-42.667v-42.667h-0.004v-341.333zM551.526 384h216.469v85.333c0.038 6.421-17.045 16.111-76.062 33.796l-0.183 0.055c-100.851 30.219-137.088 50.743-137.088 115.482 0 40.138 3.938 68.99 11.942 101.015-0.764-3.054 5.837 22.471 7.006 27.925 1.643 7.671 2.385 13.822 2.385 20.393 0 20.565-25.783 42.667-64 42.667-38.212 0-64-22.102-64-42.667 0-6.571 0.742-12.722 2.389-20.393 1.169-5.454 7.77-30.979 7.006-27.925 8.004-32.025 11.938-60.877 11.938-101.015 0-64.767-36.169-85.263-137.071-115.533-59.096-17.728-76.26-27.456-76.26-33.801v-85.333h295.529zM255.997 298.667v-256h85.333v170.667h85.333v-170.667h85.332v128h85.333v-128h170.667v256h-511.998z" />
<glyph unicode="&#xe904;" glyph-name="calend" d="M853.325 810.667h-42.667v85.333h-85.333v-85.333h-426.666v85.333h-85.333v-85.333h-42.667c-46.933 0-85.333-38.4-85.333-85.333v-682.667c0-46.933 38.4-85.333 85.333-85.333h682.666c46.933 0 85.333 38.4 85.333 85.333v682.667c0 46.933-38.4 85.333-85.333 85.333zM853.325 42.667h-682.666v469.333h682.666v-469.333zM853.325 597.334h-682.666v128h682.666v-128z" />
<glyph unicode="&#xe905;" glyph-name="camera" d="M295.98 689.264c3.023 4.203 6.38 9.347 10.661 16.284 1.564 2.534 5.828 9.569 9.004 14.808l0.003 0.005 3.576 5.894c35.37 57.857 61.081 84.412 107.443 84.412h170.667c46.362 0 72.073-26.555 107.443-84.412l3.58-5.898c3.174-5.239 7.441-12.275 9.003-14.809 4.279-6.937 7.637-12.081 10.662-16.284 1.993-2.771 3.733-4.973 5.154-6.597h120.158c70.694 0 128-57.308 128-128v-384c0-70.694-57.306-128-128-128h-682.667c-70.692 0-128 57.306-128 128v384c0 70.692 57.308 128 128 128h120.158c1.42 1.624 3.162 3.826 5.155 6.597zM170.667 597.334c-23.564 0-42.667-19.103-42.667-42.667v-384c0-23.565 19.103-42.667 42.667-42.667h682.667c23.565 0 42.667 19.102 42.667 42.667v384c0 23.564-19.102 42.667-42.667 42.667h-128c-28.343 0-47.462 15.513-66.586 42.101-4.399 6.118-8.759 12.797-14.007 21.298-1.796 2.912-6.464 10.612-9.664 15.896l-3.106 5.117c-19.298 31.568-30.938 43.588-34.637 43.588h-170.667c-3.7 0-15.339-12.020-34.637-43.588l-3.122-5.146c-3.202-5.283-7.855-12.961-9.649-15.868-5.246-8.5-9.605-15.18-14.006-21.298-19.125-26.588-38.241-42.101-66.586-42.101h-128zM853.333 512c0-23.565-19.102-42.667-42.667-42.667s-42.667 19.102-42.667 42.667c0 23.564 19.102 42.667 42.667 42.667s42.667-19.103 42.667-42.667zM298.667 384c0-117.82 95.513-213.333 213.333-213.333s213.333 95.514 213.333 213.333c0 117.82-95.514 213.333-213.333 213.333s-213.333-95.514-213.333-213.333zM640 384c0-70.694-57.306-128-128-128s-128 57.306-128 128c0 70.694 57.306 128 128 128s128-57.306 128-128z" />
<glyph unicode="&#xe906;" glyph-name="case" d="M597.333 810.667c47.13 0 85.333-38.205 85.333-85.333v-42.667h170.667c47.13 0 85.333-38.205 85.333-85.333v-469.333c0-47.13-38.204-85.333-85.333-85.333h-682.667c-47.128 0-85.333 38.204-85.333 85.333v469.333c0 47.128 38.205 85.333 85.333 85.333h170.667v42.667c0 47.128 38.205 85.333 85.333 85.333h170.667zM341.333 597.334h-170.667v-469.333h682.667v469.333h-512zM469.333 426.667h-128v-85.333h128v-128h85.333v128h128v85.333h-128v128h-85.333v-128zM597.333 725.334h-170.667v-42.667h170.667v42.667z" />
<glyph unicode="&#xe907;" glyph-name="check-mark" d="M414.17 328.837l396.497 396.497 60.339-60.34-456.836-456.836-243.503 243.503 60.34 60.339 183.164-183.164z" />
<glyph unicode="&#xe908;" glyph-name="chevrons-bottom" d="M737.813 712.834l-225.83-225.832-225.83 225.832-60.34-60.34 286.169-286.17 286.17 286.17-60.339 60.34zM798.153 439.16l-60.339 60.339-225.83-225.83-225.83 225.83-60.34-60.339 286.169-286.17 286.17 286.17z" />
<glyph unicode="&#xe909;" glyph-name="chevrons-top" d="M286.185 140.502l225.832 225.83 225.826-225.83 60.343 60.339-286.17 286.17-286.172-286.17 60.34-60.339zM225.845 414.174l60.34-60.339 225.832 225.828 225.826-225.828 60.343 60.339-286.17 286.169-286.172-286.169z" />
<glyph unicode="&#xe90a;" glyph-name="circle-checked" d="M512-42.666c-259.206 0-469.333 210.129-469.333 469.333 0 259.206 210.128 469.333 469.333 469.333 259.204 0 469.333-210.128 469.333-469.333s-210.129-469.333-469.333-469.333zM512 42.667c212.079 0 384 171.921 384 384 0 212.077-171.921 384-384 384-212.077 0-384-171.923-384-384 0-212.079 171.923-384 384-384zM652.497 584.837l-225.83-225.831-97.83 97.83-60.34-60.339 158.17-158.17 286.17 286.169-60.339 60.34z" />
<glyph unicode="&#xe90b;" glyph-name="circle-minus" d="M511.996-42.666c-259.204 0-469.332 210.129-469.332 469.333 0 259.206 210.128 469.333 469.332 469.333 259.209 0 469.333-210.128 469.333-469.333s-210.125-469.333-469.333-469.333zM512 42.663c212.079 0 384 171.925 384 384 0 212.078-171.921 384.001-384 384.001-212.076 0-383.999-171.923-383.999-384.001 0-212.075 171.923-384 383.999-384zM298.664 469.338v-85.333h426.665v85.333h-426.665z" />
<glyph unicode="&#xe90c;" glyph-name="circle-more-horizontal" d="M511.996-42.666c-259.204 0-469.332 210.129-469.332 469.333 0 259.206 210.128 469.333 469.332 469.333 259.209 0 469.333-210.128 469.333-469.333s-210.125-469.333-469.333-469.333zM512 42.663c212.079 0 384 171.925 384 384 0 212.078-171.921 384.001-384 384.001-212.076 0-383.999-171.923-383.999-384.001 0-212.075 171.923-384 383.999-384zM383.997 426.671c0-23.565-19.103-42.667-42.667-42.667s-42.667 19.102-42.667 42.667c0 23.565 19.102 42.667 42.667 42.667s42.667-19.102 42.667-42.667zM511.996 384.005c23.561 0 42.667 19.102 42.667 42.667s-19.106 42.667-42.667 42.667c-23.565 0-42.667-19.102-42.667-42.667s19.102-42.667 42.667-42.667zM725.333 426.671c0-23.565-19.102-42.667-42.667-42.667s-42.667 19.102-42.667 42.667c0 23.565 19.102 42.667 42.667 42.667s42.667-19.102 42.667-42.667z" />
<glyph unicode="&#xe90d;" glyph-name="circle-plus" d="M511.996-42.666c-259.205 0-469.333 210.129-469.333 469.333 0 259.206 210.128 469.333 469.333 469.333s469.333-210.128 469.333-469.333c0-259.204-210.129-469.333-469.333-469.333zM512 42.663c212.079 0 384 171.925 384 384 0 212.078-171.921 384.001-384 384.001s-384-171.923-384-384.001c0-212.075 171.923-384 384-384zM725.329 469.334h-170.667v170.667h-85.333v-170.667h-170.666v-85.333h170.666v-170.667h85.333v170.667h170.667v85.333z" />
<glyph unicode="&#xe90e;" glyph-name="circle-star" d="M42.663 426.667c0-259.204 210.128-469.333 469.333-469.333s469.333 210.129 469.333 469.333c0 259.206-210.129 469.333-469.333 469.333s-469.333-210.128-469.333-469.333zM896 426.663c0-212.075-171.921-384-384-384s-384 171.925-384 384c0 212.078 171.923 384.001 384 384.001 212.079 0 384-171.923 384-384.001zM323.475 173.291l36.003 209.911-152.512 148.663 210.766 30.626 94.255 190.986 94.259-190.986 210.765-30.626-152.512-148.663 36.002-209.911-188.514 99.106-188.512-99.106zM587.183 329.276l-75.179 39.522-75.183-39.522 14.362 83.712-60.824 59.29 84.056 12.211 37.589 76.167 37.589-76.167 84.053-12.211-60.821-59.29 14.357-83.712z" />
<glyph unicode="&#xe90f;" glyph-name="circle-x" d="M511.996-42.666c-259.205 0-469.333 210.129-469.333 469.333 0 259.206 210.128 469.333 469.333 469.333s469.333-210.128 469.333-469.333c0-259.204-210.129-469.333-469.333-469.333zM512 42.663c212.079 0 384 171.925 384 384 0 212.078-171.921 384.001-384 384.001s-384-171.923-384-384.001c0-212.075 171.923-384 384-384zM371.5 225.831l140.496 140.497 140.497-140.497 60.339 60.339-140.497 140.497 140.497 140.497-60.339 60.34-140.497-140.497-140.496 140.497-60.34-60.34 140.497-140.497-140.497-140.497 60.34-60.339z" />
<glyph unicode="&#xe910;" glyph-name="circle-x-1" d="M512-42.666c-259.206 0-469.333 210.129-469.333 469.333 0 259.206 210.128 469.333 469.333 469.333 259.204 0 469.333-210.128 469.333-469.333s-210.129-469.333-469.333-469.333zM512 42.667c212.079 0 384 171.921 384 384 0 212.077-171.921 384-384 384-212.077 0-384-171.923-384-384 0-212.079 171.923-384 384-384zM371.503 225.831l140.497 140.497 140.497-140.497 60.339 60.339-140.497 140.497 140.497 140.497-60.339 60.34-140.497-140.497-140.497 140.497-60.34-60.34 140.497-140.497-140.497-140.497 60.34-60.339z" />
<glyph unicode="&#xe911;" glyph-name="clipboard-text" d="M383.826 853.334h-42.493c-47.128 0-85.333-38.205-85.333-85.333h-42.667c-47.128 0-85.333-38.205-85.333-85.333v-640c0-47.13 38.205-85.333 85.333-85.333h597.333c47.13 0 85.333 38.204 85.333 85.333v640c0 47.128-38.204 85.333-85.333 85.333h-42.667c0 47.128-38.204 85.333-85.333 85.333h-42.492c-32.098 27.18-78.643 42.667-128.175 42.667s-96.077-15.487-128.174-42.667zM682.667 640c31.586 0 59.162 17.161 73.916 42.667h54.084v-640h-597.333v640h54.083c14.755-25.506 42.332-42.667 73.917-42.667h341.333zM341.337 256.005h256.001v85.333h-256.001v-85.333zM341.337 512h341.334v-85.333h-341.334v85.333zM420.595 767.997l12.757 14.704c14.020 16.155 44.066 27.963 78.652 27.963s64.631-11.808 78.647-27.963l12.762-14.704h79.258v-42.667h-341.334v42.667h79.258z" />
<glyph unicode="&#xe912;" glyph-name="expand_close" d="M178.933 754.347v-327.68h-81.92v409.6h409.601v-81.92h-327.681zM658.522 520.584l175.837 175.837v-146.874h81.92v286.72h-286.72v-81.92h146.874l-175.837-175.837 57.926-57.926zM834.249 426.671v-327.68h-327.68v-81.92h409.6v409.6h-81.92zM383.733 17.063v81.92h-146.874l175.838 175.837-57.927 57.926-175.837-175.837v146.874h-81.92v-286.72h286.72z" />
<glyph unicode="&#xe913;" glyph-name="eye" d="M512.009 746.688c116.373 0 227.657-61.040 331.362-161.329 35.379-34.214 67.388-70.742 95.565-107.283 17.003-22.054 29.073-39.398 35.682-49.732l14.703-22.989-14.703-22.989c-6.609-10.334-18.679-27.682-35.682-49.732-28.177-36.544-60.186-73.071-95.565-107.285-103.706-100.288-214.989-161.327-331.362-161.327-116.376 0-227.657 61.039-331.363 161.327-35.38 34.214-67.388 70.741-95.565 107.285-17.003 22.050-29.074 39.398-35.684 49.732l-14.703 22.989 14.703 22.989c6.609 10.334 18.681 27.678 35.684 49.732 28.177 36.541 60.185 73.068 95.565 107.283 103.706 100.289 214.986 161.329 331.363 161.329zM871.377 425.963c-25.796 33.459-55.13 66.931-87.309 98.051-89.318 86.377-182.225 137.338-272.038 137.338-89.818 0-182.722-50.96-272.043-137.338-32.179-31.119-61.51-64.591-87.308-98.051-5.572-7.223-10.72-14.118-15.427-20.612 4.707-6.494 9.856-13.389 15.427-20.612 25.798-33.459 55.129-66.931 87.308-98.048 89.321-86.379 182.225-137.34 272.043-137.34 89.813 0 182.72 50.961 272.038 137.34 32.179 31.117 61.513 64.589 87.309 98.048 5.572 7.223 10.722 14.118 15.428 20.612-4.706 6.494-9.856 13.389-15.428 20.612zM341.327 405.359c0-94.259 76.41-170.667 170.669-170.667 94.255 0 170.667 76.407 170.667 170.667 0 94.255-76.412 170.665-170.667 170.665-94.259 0-170.669-76.41-170.669-170.665zM597.329 405.355c0-47.13-38.204-85.333-85.333-85.333-47.125 0-85.332 38.204-85.332 85.333s38.207 85.333 85.332 85.333c47.13 0 85.333-38.204 85.333-85.333z" />
<glyph unicode="&#xe914;" glyph-name="fit" d="M85.333 853.334v-341.333h85.333v256h256v85.333h-341.333zM853.333 512h85.333v341.333h-341.333v-85.333h256v-256zM85.333 341.334h85.333v-256h256v-85.333h-341.333v341.333zM938.667-0v341.333h-85.333v-256h-256v-85.333h341.333z" />
<glyph unicode="&#xe915;" glyph-name="flame" d="M476.834 446.733c23.313 32.721 20.715 67.185 4.548 129.178-31.974 122.604-19.243 189.803 90.978 269.362l53.798 38.831 13.013-65.059c13.828-69.143 36.535-111.907 94.848-194.166 2.317-3.267 2.317-3.267 4.642-6.549 83.994-118.498 114.671-189.931 114.671-319.654 0-157.367-159.091-298.667-341.333-298.667-182.255 0-341.334 141.278-341.334 298.667 0 2.944 0.003 2.854-0.495 15.855-3.855 100.548 14.738 179.247 89.97 264.217 15.895 17.953 33.963 35.208 54.296 51.718l44.885 36.448 21.591-53.637c15.954-39.633 34.647-70.787 55.763-93.65 17.886-19.363 31.151-43.713 40.158-72.893zM324.031 522.18c-57.914-65.411-71.683-123.69-68.59-204.381 0.576-15.023 0.558-14.494 0.558-19.123 0-107.853 118.767-213.333 256-213.333 137.22 0 256 105.498 256 213.333 0 108.45-24.247 164.907-98.957 270.308-2.313 3.265-2.313 3.265-4.642 6.547-45.372 64.006-72.414 108.529-90.308 158.324-29.218-35.015-27.503-69.84-10.142-136.411 31.974-122.602 19.243-189.802-90.978-269.363l-62.85-45.363-4.711 77.367c-3.010 49.429-14.199 82.995-31.422 101.641-17.016 18.428-32.381 39.996-46.159 64.672-1.285-1.402-2.552-2.808-3.8-4.218z" />
<glyph unicode="&#xe916;" glyph-name="gears" d="M418.5 516.667c-7.666-12.334-16.583-23.585-26.75-33.748-10.167-10.167-21.417-19.085-33.75-26.752l25.5-61.999-59-24-25.5 61.5c-13.333-3.332-27.666-5.001-43-5.001s-29.667 1.668-43 5.001l-25.5-61.5-59 24 25.5 61.999c-12.334 7.667-23.584 16.585-33.75 26.752-10.167 10.163-19.084 21.414-26.75 33.748l-62-25.501-24 59.001 61.5 25.5c-3.334 13.333-5 27.666-5 43s1.667 29.667 5 43l-61.5 25.5 24 59 62-25.5c15.333 25 35.5 45.167 60.5 60.5l-25.5 62 59 24 25.5-61.5c13.333 3.334 27.666 5 43 5s29.667-1.667 43-5l25.5 61.5 59-24-25.5-62c25-15.333 45.167-35.5 60.5-60.5l61.999 25.5 24-59-61.5-25.5c3.332-13.333 5.001-27.666 5.001-43s-1.668-29.667-5.001-43l61.5-25.5-24-59.001-61.999 25.501zM256 490.667c17.667 0 34.25 3.332 49.75 10.001 15.5 6.665 29.083 15.832 40.75 27.499s20.834 25.25 27.5 40.75c6.667 15.5 10 32.084 10 49.75s-3.333 34.25-10 49.75c-6.666 15.5-15.833 29.083-27.5 40.75s-25.25 20.834-40.75 27.5c-15.5 6.667-32.084 10-49.75 10s-34.25-3.333-49.75-10c-15.5-6.666-29.083-15.833-40.75-27.5s-20.834-25.25-27.5-40.75c-6.667-15.5-10-32.084-10-49.75s3.333-34.25 10-49.75c6.666-15.5 15.833-29.083 27.5-40.75s25.25-20.835 40.75-27.499c15.5-6.669 32.084-10.001 49.75-10.001zM960 266.667c0-18.334-2.334-36.834-7.002-55.501l68.501-27.998-24-59.503-69.001 28.501c-19.665-32.666-45.666-58.667-77.999-77.999l28.501-68.501-59.503-24.499-27.998 68.501c-18.667-4.668-37.167-7.002-55.501-7.002s-36.834 2.334-55.501 7.002l-27.998-68.501-59.503 24.499 28.501 68.501c-32.666 19.332-58.667 45.333-77.999 77.999l-69.001-28.501-24 59.503 68.501 27.998c-4.668 18.667-7.002 37.167-7.002 55.501s2.334 36.834 7.002 55.501l-68.501 27.998 24 59.503 69.001-28.501c19.332 32.333 45.333 58.334 77.999 77.999l-28.501 69.001 59.503 24 27.998-68.502c18.667 4.668 37.167 7.002 55.501 7.002s36.834-2.334 55.501-7.002l27.998 68.502 59.503-24-28.501-69.001c32.333-19.665 58.334-45.666 77.999-77.999l69.001 28.501 24-59.503-68.501-27.998c4.668-18.667 7.002-37.167 7.002-55.501zM736 106.667c21.999 0 42.667 4.169 61.999 12.501s36.25 19.75 50.752 34.249c14.498 14.498 26.001 31.501 34.5 50.999s12.749 40.252 12.749 62.251c0 21.999-4.25 42.667-12.749 61.999s-20.002 36.25-34.5 50.752c-14.502 14.498-31.42 26.001-50.752 34.5s-40 12.749-61.999 12.749c-21.999 0-42.752-4.25-62.251-12.749s-36.501-20.002-50.999-34.5c-14.498-14.502-25.916-31.42-34.249-50.752s-12.501-40-12.501-61.999c0-21.999 4.169-42.752 12.501-62.251s19.75-36.501 34.249-50.999c14.498-14.498 31.501-25.916 50.999-34.249s40.252-12.501 62.251-12.501z" />
<glyph unicode="&#xe917;" glyph-name="heart" d="M232.491 407.019c14.12 0 26.692 8.508 31.914 21.662l57.639 144.098 74.854-336.938c3.482-15.471 16.827-26.496 32.687-26.884h0.969c15.279 0 28.817 10.253 33.075 24.951l68.467 239.646 14.315-42.94c4.642-14.118 17.796-23.595 32.687-23.595h198.063c18.957 0 34.428 15.471 34.428 34.428 0 9.284-3.482 17.796-10.057 24.371s-15.087 10.057-24.371 10.057h-173.303l-41.587 124.95c-5.026 15.28-19.533 25.145-34.039 23.597-14.895-0.58-27.661-10.638-31.723-24.951l-61.7-216.242-69.631 313.146c-3.288 14.893-15.667 25.531-30.947 26.886-15.087 0.967-29.013-7.543-34.622-21.47l-90.327-225.915h-174.852c-18.955 0-34.429-15.471-34.429-34.428s15.474-34.428 34.429-34.428h198.062zM919.744 806.060c-57.83 58.026-134.814 89.94-216.823 89.94-72.145 0-141.969-26.305-198.063-74.080-56.090 47.775-126.108 74.080-198.060 74.080-82.010 0-158.991-31.914-216.824-89.94-38.297-38.104-65.763-85.879-79.109-138.102-12.959-50.289-12.959-103.866 0-154.543l1.934-7.35h72.146l-3.869 12.573c-26.499 85.298-4.448 176.786 57.639 238.874 44.873 44.873 104.64 69.631 168.275 69.631 57.252 0 111.023-20.502 155.315-59.186l42.551-39.845 42.748 39.845c44.489 38.684 98.257 59.186 155.315 59.186 63.637 0 123.209-24.758 168.277-69.631 44.873-44.873 69.632-104.64 69.632-168.275s-24.759-123.401-69.632-168.274l-366.34-366.144-322.042 322.044h-97.484l419.526-419.529 414.886 414.886c119.727 119.727 119.727 314.307 0 433.84z" />
<glyph unicode="&#xe918;" glyph-name="max" d="M341.333 853.334v-85.333h128v85.333h-128zM554.667 853.334v-85.333h128v85.333h-128zM554.667 85.334h-384v469.333h170.667v85.333h-256v-640h640v256h-85.333v-170.667h-85.333zM853.333 256v128h85.333v-128h-85.333zM853.333 597.334v-128h85.333v128h-85.333zM85.333 682.667v170.667h170.667v-85.333h-85.333v-85.333h-85.333zM853.333 682.667h85.333v170.667h-170.667v-85.333h85.333v-85.333zM768 85.334v-85.333h170.667v170.667h-85.333v-85.333h-85.333zM371.381 225.831l268.495 268.497v-152.994h85.333v298.667h-298.665v-85.333h152.992l-268.495-268.497 60.34-60.339z" />
<glyph unicode="&#xe919;" glyph-name="maximize" d="M170.638 768v-341.333h-85.333v426.667h426.665v-85.333h-341.332zM670.208 524.497l183.164 183.164v-152.994h85.333v298.667h-298.667v-85.333h152.994l-183.164-183.163 60.339-60.34zM853.261 426.671v-341.333h-341.333v-85.333h426.667v426.667h-85.333zM383.971-0.004v85.333h-152.994l183.164 183.164-60.34 60.339-183.163-183.164v152.994h-85.333v-298.667h298.667z" />
<glyph unicode="&#xe91a;" glyph-name="maximize-1" d="M153.571 512v273.067h273.067v68.267h-341.333v-341.333h68.267zM870.37 341.334v-273.067h-273.067v-68.267h341.333v341.333h-68.267zM870.37 785.067h-273.067v68.267h341.333v-341.333h-68.267v273.067zM426.671 68.267h-273.067v273.067h-68.267v-341.333h341.334v68.267z" />
<glyph unicode="&#xe91b;" glyph-name="min" d="M853.333-0h-298.667v85.333h85.333v85.333h85.333v-85.333h128v682.667h-682.667v-85.333h85.333v-85.333h-85.332v-128h-85.333v42.667h-0.001v341.333h853.333v-853.333h-85.333zM341.333 682.667v-85.333h128v85.333h-128zM341.335 85.334v-85.333h127.999v85.333h-127.999zM85.335 256v128h85.333v-128h-85.333zM640 256v128h85.333v-128h-85.333zM85.335 170.667h85.333v-85.333h85.333v-85.333h-170.667v170.667zM622.204 597.334l-268.499-268.497v152.994h-85.333v-298.667h298.668v85.333h-152.995l268.498 268.497-60.339 60.34z" />
<glyph unicode="&#xe91c;" glyph-name="minimize" d="M896 511.996v85.334h-152.994l183.164 183.164-60.339 60.34-183.164-183.163v152.993h-85.333v-298.668h298.667zM298.664 639.995v-213.332h-85.333v298.665h298.665v-85.333h-213.332zM725.329 426.663v-213.333h-213.333v-85.333h298.667v298.667h-85.333zM158.17 12.493l183.163 183.164v-152.994h85.333v298.667h-298.666v-85.333h152.994l-183.163-183.164 60.34-60.339z" />
<glyph unicode="&#xe91d;" glyph-name="minus" d="M938.671 469.334v-85.333h-853.335v85.333h853.335z" />
<glyph unicode="&#xe91e;" glyph-name="more-horizontal" d="M213.333 341.334c-47.128 0-85.333 38.204-85.333 85.333s38.205 85.333 85.333 85.333c47.128 0 85.333-38.204 85.333-85.333s-38.205-85.333-85.333-85.333zM511.991 341.334c-47.13 0-85.334 38.204-85.334 85.333s38.204 85.333 85.334 85.333c47.13 0 85.333-38.204 85.333-85.333s-38.204-85.333-85.333-85.333zM725.342 426.667c0-47.13 38.204-85.333 85.333-85.333s85.333 38.204 85.333 85.333c0 47.13-38.204 85.333-85.333 85.333s-85.333-38.204-85.333-85.333z" />
<glyph unicode="&#xe91f;" glyph-name="movearr" d="M795.558 389.287h-246.178v-246.178l85.709 85.709 52.864-52.864-175.953-175.953-175.953 175.953 52.864 52.864 85.709-85.709v246.178h-246.179l85.709-85.709-52.864-52.864-175.953 175.953 175.953 175.953 52.864-52.864-85.709-85.709h246.179v246.179l-85.709-85.709-52.864 52.864 175.953 175.953 175.953-175.953-52.864-52.864-85.709 85.709v-246.179h246.178l-85.709 85.709 52.864 52.864 175.953-175.953-175.953-175.953-52.864 52.864 85.709 85.709z" />
<glyph unicode="&#xe920;" glyph-name="options" d="M554.667 469.334c-79.522 0-146.344 54.39-165.29 128h-304.044v85.333h304.044c18.946 73.61 85.768 128 165.29 128 94.255 0 170.667-76.41 170.667-170.667s-76.412-170.667-170.667-170.667zM810.667 682.667h128v-85.333h-128v85.333zM341.333 42.667c-79.524 0-146.344 54.391-165.29 128h-90.71v85.333h90.71c18.946 73.609 85.766 128 165.29 128 94.255 0 170.667-76.412 170.667-170.667s-76.412-170.667-170.667-170.667zM597.333 170.667h341.333v85.333h-341.333v-85.333zM426.667 213.334c0-47.13-38.205-85.333-85.333-85.333s-85.333 38.204-85.333 85.333c0 47.13 38.205 85.333 85.333 85.333s85.333-38.204 85.333-85.333zM640 640c0-47.128-38.204-85.333-85.333-85.333s-85.333 38.205-85.333 85.333c0 47.128 38.204 85.333 85.333 85.333s85.333-38.205 85.333-85.333z" />
<glyph unicode="&#xe921;" glyph-name="pencil-create" d="M701.329 853.334c27.934 0 54.711-11.154 74.27-30.866l132.305-132.305c19.699-19.698 30.767-46.415 30.767-74.272s-11.068-54.574-30.767-74.272l-483.050-482.9c-29.802-34.377-72.047-55.497-120.444-58.816h-219.076v42.667l0.139 179.84c3.635 44.992 24.551 86.827 56.459 114.94l485.073 485.068c19.669 19.789 46.421 30.918 74.325 30.918zM301.396 85.129c22.794 1.613 44.011 12.22 61.048 31.71l322.641 322.641-160.188 160.192-324.531-324.455c-17.286-15.287-27.98-36.676-29.7-56.243v-133.764l130.73-0.081zM585.246 660.005l160.179-160.186 102.14 102.139c3.695 3.695 5.773 8.707 5.773 13.932s-2.078 10.237-5.773 13.932l-132.425 132.424c-3.652 3.683-8.627 5.754-13.811 5.754-5.188 0-10.163-2.071-13.815-5.754l-102.268-102.242z" />
<glyph unicode="&#xe922;" glyph-name="pencil-edit" d="M938.667 85.334c0-47.13-38.204-85.333-85.333-85.333h-682.667c-47.128 0-85.333 38.204-85.333 85.333v682.667c0 47.128 38.205 85.333 85.333 85.333h298.667v-85.333h-298.667v-682.667h682.667v298.667h85.333v-298.667zM818.266 822.468l89.638-89.638c19.699-19.698 30.767-46.415 30.767-74.272s-11.068-54.574-30.767-74.272l-355.051-354.9c-29.803-34.377-72.047-55.497-120.444-58.816h-176.41v42.667l0.139 137.173c3.635 44.992 24.551 86.827 56.459 114.94l357.073 357.068c19.669 19.789 46.421 30.918 74.325 30.918 27.934 0 54.711-11.154 74.27-30.866zM429.397 255.796c22.793 1.613 44.011 12.22 61.047 31.71l258.641 258.64-117.517 117.523-260.535-260.451c-17.286-15.287-27.98-36.676-29.7-56.243v-91.098l88.064-0.081zM691.921 723.999l117.504-117.514 38.14 38.139c3.695 3.695 5.773 8.707 5.773 13.932s-2.078 10.237-5.773 13.932l-89.758 89.757c-3.652 3.683-8.627 5.754-13.811 5.754-5.188 0-10.163-2.071-13.815-5.754l-38.259-38.247z" />
<glyph unicode="&#xe923;" glyph-name="plus" d="M554.671 469.334h384v-85.333h-384v-384h-85.333v384h-384.002v85.333h384.002v384h85.333v-384z" />
<glyph unicode="&#xe924;" glyph-name="question-circle" d="M42.669 426.667c0-259.204 210.128-469.333 469.335-469.333 259.204 0 469.333 210.129 469.333 469.333 0 259.206-210.129 469.333-469.333 469.333-259.207 0-469.335-210.128-469.335-469.333zM896 426.671c0-212.075-171.921-384-384-384-212.076 0-383.999 171.925-383.999 384 0 212.079 171.923 384.002 383.999 384.002 212.079 0 384-171.923 384-384.002zM512.017 213.415c23.573 0 42.684 19.102 42.684 42.667s-19.11 42.667-42.684 42.667c-23.569 0-42.679-19.102-42.679-42.667s19.11-42.667 42.679-42.667zM469.338 341.342h85.333c0 34.061 5.35 40.303 40.414 57.835 60.937 30.468 87.586 61.559 87.586 134.164 0 92.986-73.203 149.333-170.667 149.333-94.257 0-170.667-76.41-170.667-170.667h85.334c0 47.128 38.204 85.333 85.333 85.333 54.494 0 85.333-23.74 85.333-64 0-34.063-5.35-40.305-40.414-57.837-60.937-30.468-87.586-61.559-87.586-134.161z" />
<glyph unicode="&#xe925;" glyph-name="scan" d="M682.675 853.334h178.423c42.842 0 77.577-38.205 77.577-85.333v-170.667h-85.333v170.667h-170.667v85.333zM85.337 384v85.333h853.334v-85.333h-853.334zM682.675-0.004v85.333h170.667v170.667h85.333v-170.667c0-47.13-34.735-85.333-77.577-85.333h-178.423zM162.913-0.004h178.424v85.333h-170.667v170.667h-85.333v-170.667c0-47.13 34.732-85.333 77.576-85.333zM341.337 768v85.333h-178.424c-42.844 0-77.576-38.205-77.576-85.333v-170.667h85.333v170.667h170.667z" />
<glyph unicode="&#xe926;" glyph-name="scan-doc" d="M277.337 853.334h583.761c42.842 0 77.577-38.205 77.577-85.333v-362.667h-85.333v362.667h-682.671v-362.667h-85.333v362.667c0 47.128 34.732 85.333 77.576 85.333h114.424zM85.337 256v85.333h853.334v-85.333h-853.334zM746.675-0v85.333h106.667v106.667h85.333v-106.667c0-47.13-34.735-85.333-77.577-85.333h-114.423zM162.913-0.004h114.424v85.333h-106.667v106.667h-85.333v-106.667c0-47.13 34.732-85.333 77.576-85.333zM298.673 469.334v-85.333h426.669v85.333h-426.669zM298.673 640.021v-85.333h426.669v85.333h-426.669z" />
<glyph unicode="&#xe927;" glyph-name="search" d="M426.667 170.667c78.878 0 151.509 26.756 209.306 71.684l229.858-229.854 60.339 60.339-229.854 229.858c44.928 57.796 71.684 130.428 71.684 209.306 0 188.513-152.819 341.333-341.333 341.333s-341.333-152.82-341.333-341.333c0-188.514 152.82-341.333 341.333-341.333zM682.667 512c0-141.385-114.615-256-256-256s-256 114.615-256 256c0 141.385 114.615 256 256 256s256-114.615 256-256z" />
<glyph unicode="&#xe928;" glyph-name="settings" d="M795.998 47.062l94.596 94.601-33.314 121.037 14.515 34.667 109.538 61.811v133.777l-109.227 62.066-14.272 34.605 33.732 121.102-94.665 94.529-121.050-33.308-34.59 14.502-61.815 109.55h-133.777l-62.066-109.228-34.597-14.269-121.082 33.777-94.519-94.519 33.313-121.070-14.502-34.589-109.55-61.814v-133.739l109.13-62.208 14.284-34.633-33.73-121.084 94.554-94.554 121.070 33.314 34.593-14.507 61.818-109.504h133.739l62.161 109.133 34.628 14.281 121.084-33.728zM804.382 357.308l-37.197-88.841 27.959-101.581-24.252-24.252-101.367 28.241-88.875-36.655-52.126-91.511h-34.321l-51.691 91.567-88.74 37.21-101.635-27.964-24.211 24.209 28.238 101.367-36.652 88.87-91.512 52.16v34.33l91.61 51.691 37.21 88.745-27.966 101.635 24.16 24.16 101.365-28.277 88.906 36.668 52.045 91.586h34.287l51.695-91.61 88.742-37.21 101.658 27.971 24.269-24.236-28.233-101.346 36.663-88.902 91.588-52.041v-34.287l-91.618-51.699zM512 256c-94.257 0-170.667 76.412-170.667 170.667 0 94.257 76.41 170.667 170.667 170.667 94.255 0 170.667-76.41 170.667-170.667 0-94.255-76.412-170.667-170.667-170.667zM597.333 426.667c0-47.13-38.204-85.333-85.333-85.333s-85.333 38.204-85.333 85.333c0 47.13 38.204 85.333 85.333 85.333s85.333-38.204 85.333-85.333z" />
<glyph unicode="&#xe929;" glyph-name="share-arrow" d="M554.667 255.992v451.663l140.497-140.497 60.339 60.34-243.503 243.503-243.503-243.503 60.34-60.34 140.497 140.497v-451.663h85.333zM896 85.334v384h-85.333v-384h-597.333v384h-85.333v-384c0-47.13 38.205-85.333 85.333-85.333h597.333c47.13 0 85.333 38.204 85.333 85.333z" />
<glyph unicode="&#xe92a;" glyph-name="trash" d="M384 896c-47.128 0-85.333-38.205-85.333-85.333v-42.667h-128c-47.128 0-85.333-38.205-85.333-85.333v-85.333c0-47.128 38.205-85.333 85.333-85.333h3.408l39.406-472.875c-0.147-43.588 38.058-81.792 85.186-81.792h426.667c47.13 0 85.333 38.204 85.333 85.333l39.249 469.333h3.418c47.13 0 85.333 38.205 85.333 85.333v85.333c0 47.128-38.204 85.333-85.333 85.333h-128v42.667c0 47.128-38.204 85.333-85.333 85.333h-256zM170.667 682.667h682.667v-85.333h-682.667v85.333zM259.69 512h504.606l-38.814-465.792-0.149-3.541h-426.667l-38.976 469.333zM640 810.667v-42.667h-256v42.667h256z" />
<glyph unicode="&#xe92b;" glyph-name="close" d="M511.997 474.938l217.225 217.224 48.271-48.272-217.225-217.223 217.225-217.225-48.271-48.271-217.225 217.225-217.222-217.225-48.272 48.271 217.223 217.225-217.223 217.223 48.272 48.272 217.222-217.224z" />
<glyph unicode="&#xe92c;" glyph-name="zoom-in" d="M85.333 512c0 188.513 152.82 341.333 341.333 341.333s341.333-152.82 341.333-341.333c0-78.878-26.756-151.509-71.684-209.306l229.854-229.858-60.339-60.339-229.858 229.854c-57.796-44.928-130.428-71.684-209.306-71.684-188.513 0-341.333 152.819-341.333 341.333zM426.667 256c141.385 0 256 114.615 256 256s-114.615 256-256 256c-141.385 0-256-114.615-256-256s114.615-256 256-256zM384 682.667h85.333v-128h128v-85.333h-128v-128h-85.333v128h-128v85.333h128v128z" />
<glyph unicode="&#xe92d;" glyph-name="zoom-out" d="M85.333 512c0 188.513 152.82 341.333 341.333 341.333s341.333-152.82 341.333-341.333c0-78.878-26.756-151.509-71.684-209.306l229.854-229.858-60.339-60.339-229.858 229.854c-57.796-44.928-130.428-71.684-209.306-71.684-188.513 0-341.333 152.819-341.333 341.333zM426.667 256c141.385 0 256 114.615 256 256s-114.615 256-256 256c-141.385 0-256-114.615-256-256s114.615-256 256-256zM256 554.667h341.333v-85.333h-341.333v85.333z" />
<glyph unicode="&#xe92e;" glyph-name="zoom-out-1" d="M85.333 512c0 188.513 152.82 341.333 341.333 341.333s341.333-152.82 341.333-341.333c0-78.878-26.756-151.509-71.684-209.306l229.854-229.858-60.339-60.339-229.858 229.854c-57.796-44.928-130.428-71.684-209.306-71.684-188.513 0-341.333 152.819-341.333 341.333zM426.667 256c141.385 0 256 114.615 256 256s-114.615 256-256 256c-141.385 0-256-114.615-256-256s114.615-256 256-256zM256 554.667h341.333v-85.333h-341.333v85.333z" />
</font>
</defs>
</svg>
