<svg width="21" height="21" viewBox="0 0 21 21" fill="none" xmlns="http://www.w3.org/2000/svg">
<path d="M16.875 3.375H14V2.875C14 2.5 13.75 2.25 13.375 2.25H6.625C6.25 2.25 6 2.5 6 2.875V3.375H3.125C2.75 3.375 2.5 3.75 2.5 4V19.125C2.5 19.5 2.75 19.75 3.125 19.75H16.875C17.25 19.75 17.5 19.5 17.5 19.125V4C17.5 3.75 17.25 3.375 16.875 3.375ZM7.25 3.5H12.875V4.5H7.25V3.5ZM16.25 18.5H3.75V4.625H6V5.125C6 5.5 6.25 5.75 6.625 5.75H13.5C13.875 5.75 14.125 5.5 14.125 5.125V4.625H16.25V18.5Z" fill="#809CFF"/>
<path d="M15 7.375H11V8.625H15V7.375Z" fill="#809CFF"/>
<path d="M15 10.125H11V11.375H15V10.125Z" fill="#809CFF"/>
<path d="M14.875 12.75H5.125V14H14.875V12.75Z" fill="#809CFF"/>
<path d="M14.875 15.5H5.125V16.75H14.875V15.5Z" fill="#809CFF"/>
<path d="M6.75 11.75H8V10H9.75V8.75H8V6.875H6.75V8.75H5V10H6.75V11.75Z" fill="#809CFF"/>
<circle cx="16.5" cy="5.28906" r="4.5" fill="#EB5757"/>
</svg>
