<svg width="20" height="20" viewBox="0 0 20 20" fill="none" xmlns="http://www.w3.org/2000/svg">
<path d="M16.875 2.375H14V1.875C14 1.5 13.75 1.25 13.375 1.25H6.625C6.25 1.25 6 1.5 6 1.875V2.375H3.125C2.75 2.375 2.5 2.75 2.5 3V18.125C2.5 18.5 2.75 18.75 3.125 18.75H16.875C17.25 18.75 17.5 18.5 17.5 18.125V3C17.5 2.75 17.25 2.375 16.875 2.375ZM7.25 2.5H12.875V3.5H7.25V2.5ZM16.25 17.5H3.75V3.625H6V4.125C6 4.5 6.25 4.75 6.625 4.75H13.5C13.875 4.75 14.125 4.5 14.125 4.125V3.625H16.25V17.5Z" fill="#323563"/>
<path d="M15 6.375H11V7.625H15V6.375Z" fill="#323563"/>
<path d="M15 9.125H11V10.375H15V9.125Z" fill="#323563"/>
<path d="M14.875 11.75H5.125V13H14.875V11.75Z" fill="#323563"/>
<path d="M14.875 14.5H5.125V15.75H14.875V14.5Z" fill="#323563"/>
<path d="M6.75 10.75H8V9H9.75V7.75H8V5.875H6.75V7.75H5V9H6.75V10.75Z" fill="#323563"/>
</svg>
